<svg xmlns="http://www.w3.org/2000/svg" viewBox="0 0 800 200">
  <defs>
    <style>
      .cls-1 {
        fill: #fff;
      }

      .cls-2 {
        stroke: #000;
        stroke-miterlimit: 10;
      }
    </style>
  </defs>
  <path class="cls-2" d="M324.9,74.86v2.9h13.8c7.85,0,15.5,8.32,15.5,14.86v8.44c0,6.54-7.65,15.4-15.5,15.4h-13.8v7.1h45.23c-.23-2.64-.35-5.43-.35-8.47,1.37-1.29,2.7-2.7,2.7-2.7h28.6c-12.06-5.02-21.85-13.71-25.63-25.05-.79-2.37-1.5-7.09-1.54-12.48h-49.01Z"/>
  <path class="cls-2" d="M434.53,124.84c.17-.91-1.13-2.21-3.25-3.05-9.6-3.79-13.19-3.83-14.27-4.35,1.79,8.45,4.61,10.5,10.11,11.18,2.59.32,6.84-.74,7.41-3.78Z"/>
  <path class="cls-2" d="M263.09,108.24c4.3,3.8,9.18,12.8,13.6,22.52v-40.14c-2.25,6.55-6.43,11.81-13.6,17.62Z"/>
  <path class="cls-2" d="M421.76,70.57c1.23.54,2.89,1.13,4.03,1.35,1.84.36,3.22.56,4.51,1.1-.98-2.18-6.07-3.57-8.54-2.45Z"/>
  <path class="cls-2" d="M0,0v200h800V0H0ZM743.01,164.72h-42.49l-2.66-2.7v-26.6l-6.48,26.6-2.65,2.7h-33.32l-2.66-2.7-6.44-26.6v26.6l-2.68,2.7h-40.43l-2.69-2.65v-35.87c-12.4,43.39-55.97,40.5-60.13,40.5s-44.66,2.69-58.68-36c-2.66,12.84-9.72,19.46-13.24,22.94-6.13,6.06-15.74,13.06-39.85,13.06-16.58,0-32.09-1.07-42.13-10.51-1.72-1.62-3.27-3.21-4.69-4.8-1.45,4.97-6.24,13.33-15.87,13.33h-89.24v-.02h-38.06l-3.08-3.27-20.22-39.52v40.19l-2.6,2.6h-43l-2.6-2.7v-19.18c-2.75,5.45-6.88,9.55-11.76,14.28-7.86,7.62-32.64,7.62-36.68,7.62h-61.7V48.81c0-4.27,7.03-13.59,14.7-13.59h58.98c15.83,0,34.96,10.86,34.96,34.85,0,12.83-3.41,20.24-8.49,24.75,4.75,3.51,7.91,7.4,9.98,11.58v-55.25c0-7.21,8.42-15.86,14.8-15.86h60c5.59,0,27.69,1.65,34.76,23.7v-5.46c0-9.51,7.86-18.47,17-18.47h70.24c8.99,0,16.76,9.57,16.76,15.98v.25c12.46-15.13,23.42-18,47.17-18,10.35,0,27.68.2,39.5,12.88,7.81,8.38,11.62,16.59,11.78,32.42,10.56-48.08,56.59-45.3,61.27-45.3s47.79-2.6,60.13,40.79v-21.01c0-10.78,9.32-17.85,15.2-17.85h44l2.62,2.75,9.81,40.5,9.7-40.5,2.77-2.75h43.59c8.05,0,14.8,9.81,14.8,12.85v116.65Z"/>
  <path class="cls-2" d="M476.27,82.64h-15.96c7.75,4.54,13.13,9.65,16.68,15.34.12-6.67.77-12.67,1.85-18.04-1.24,1.4-2.57,2.7-2.57,2.7Z"/>
  <path class="cls-1" d="M728.22,35.22h-43.6l-2.77,2.75-9.7,40.5-9.81-40.5-2.62-2.75h-44c-5.88,0-15.2,7.07-15.2,17.85v21.01c-12.34-43.39-55.45-40.79-60.13-40.79s-50.71-2.78-61.27,45.3c-.16-15.83-3.97-24.04-11.78-32.42-11.82-12.68-29.15-12.88-39.5-12.88-23.75,0-34.71,2.87-47.17,18v-.25c0-6.41-7.77-15.98-16.76-15.98h-70.24c-9.14,0-17,8.96-17,18.47v5.46c-7.07-22.05-29.17-23.7-34.76-23.7h-60c-6.38,0-14.8,8.65-14.8,15.86v55.25c-2.07-4.18-5.23-8.07-9.98-11.58,5.08-4.51,8.49-11.92,8.49-24.75,0-23.99-19.13-34.85-34.96-34.85h-58.98c-7.67,0-14.7,9.32-14.7,13.59v115.91h61.7c4.04,0,28.82,0,36.68-7.62,4.88-4.73,9.01-8.83,11.76-14.28v19.18l2.6,2.7h43l2.6-2.6v-40.19l20.22,39.52,3.08,3.27h38.06v.02h89.24c9.63,0,14.42-8.36,15.87-13.33,1.42,1.59,2.97,3.18,4.69,4.8,10.04,9.44,25.55,10.51,42.13,10.51,24.11,0,33.72-7,39.85-13.06,3.52-3.48,10.58-10.1,13.24-22.94,14.02,38.69,54.52,36,58.68,36s47.73,2.89,60.13-40.5v35.87l2.69,2.65h40.43l2.68-2.7v-26.6l6.44,26.6,2.66,2.7h33.32l2.65-2.7,6.48-26.6v26.6l2.66,2.7h42.49V48.07c0-3.04-6.75-12.85-14.8-12.85h.01ZM154.25,150.37c-9.16,9.35-30.97,8.9-40.56,8.9h-52V55.07c.27-8.31,5.86-14.5,13.69-14.5h50.91c17.42,0,33.77,9.32,33.77,30.71,0,12.54-6.36,21.12-13.37,24.59,5.81,1.97,18.54,9.53,18.54,27.49,0,9.78-2.04,17.89-10.98,27.02h0ZM401.08,112.39h-28.6s-1.33,1.41-2.7,2.7c0,3.04.12,5.83.35,8.47h-45.23v-7.1h13.8c7.85,0,15.5-8.86,15.5-15.4v-8.44c0-6.54-7.65-14.86-15.5-14.86h-13.8v-2.9h49.01c.04,5.39.75,10.11,1.54,12.48,3.78,11.34,13.57,20.03,25.63,25.05ZM376.89,145.2c0,7.47-6.06,13.96-13.53,13.96h-79.72l.05.1h-42.41s-13.17-26.33-20.71-40.55c-3.71-7.01-10.58-5.72-10.58-5.72v46.27h-37.5V54.66c0-7.79,6.31-14.1,14.1-14.1h47.1c23.72,0,39.8,8.94,39.8,35.5,0,10.09-4.75,24.23-21.2,31,5.01,1.95,11.44,11.48,13.63,15.88,4.98,10.03,13.07,26.65,16.34,33.37V54.11c0-7.47,6.05-13.54,13.52-13.54h65.8c7.47,0,13.52,6.07,13.52,13.54v15.28h-55.56v13.78h16.18c9.46,0,13.17,8.06,13.17,13.9s-4.04,13.8-13.17,13.8h-16.18v17.92l57.35.18v16.24h0ZM276.69,90.62v40.14c-4.42-9.72-9.3-18.72-13.6-22.52,7.17-5.81,11.35-11.07,13.6-17.62h0ZM426.15,161.25c-28.57-1-47.45-8.21-50.92-43.43h36c1.07,10.8,6.41,14.48,11.67,15.91,16.65,4.53,26.3-13.53,7.09-18.96-7.64-2.16-23.48-5.29-34.49-12-11.44-6.97-17.77-19.31-15.83-32.72,1.75-12.11,10.27-32.34,49.28-31.4,41.72,1.01,43.18,26.6,44.64,38.56h-35.55c-1.08-5.37-3.53-12.52-13.07-12.68-9.45-.16-10.72,3.67-10.72,6.91,0,5.37,14.25,6.9,21.94,9.05,15.41,4.3,40.88,10.89,40.88,39.63,0,16.06-11.15,42.52-50.91,41.13h-.01ZM417.01,117.44c1.07.52,4.66.56,14.27,4.35,2.12.84,3.42,2.14,3.25,3.05-.57,3.04-4.82,4.1-7.41,3.78-5.5-.68-8.32-2.73-10.11-11.19h0ZM430.3,73.02c-1.29-.54-2.67-.74-4.51-1.1-1.14-.22-2.8-.81-4.03-1.35,2.47-1.12,7.56.27,8.54,2.45ZM477,97.99c-3.55-5.69-8.93-10.81-16.69-15.35h15.96s1.33-1.3,2.57-2.7c-1.08,5.37-1.73,11.37-1.85,18.05h.01ZM540.4,161.38c-40.77,0-57.64-27.48-57.64-61.38s16.91-61.38,57.64-61.38,57.64,27.48,57.64,61.38-16.87,61.38-57.64,61.38h0ZM738.13,159.27h-34.93v-71.55l-17.2,71.55h-27.87l-17.2-71.55v71.55h-34.95V54.63c0-7.77,6.3-14.06,14.06-14.06h36.8l15.48,63.17,15.11-63.17h36.63c7.77,0,14.06,6.3,14.06,14.06v104.64h.01Z"/>
</svg>